<!-- Generated by IcoMoon.io -->
<svg version="1.1" xmlns="http://www.w3.org/2000/svg" width="34" height="32" viewBox="0 0 34 32">
<title>bank</title>
<path fill="#fff" d="M33.968 6.968v1.129c0 0.15-0.059 0.293-0.165 0.399s-0.249 0.165-0.399 0.165h-1.694v0.847c0 0.468-0.379 0.847-0.847 0.847h-27.661c-0.468 0-0.847-0.379-0.847-0.847v-0.847h-1.694c-0.15 0-0.293-0.059-0.399-0.165s-0.165-0.249-0.165-0.399v-1.129c0-0.112 0.033-0.221 0.095-0.314s0.15-0.165 0.253-0.208l16.371-6.21c0.138-0.057 0.293-0.057 0.432 0l16.371 6.21c0.103 0.043 0.191 0.115 0.253 0.208s0.095 0.202 0.095 0.314zM32.274 28.419h-30.484c-0.935 0-1.694 0.758-1.694 1.694v1.129c0 0.15 0.059 0.293 0.165 0.399s0.249 0.165 0.399 0.165h32.742c0.15 0 0.293-0.060 0.399-0.165s0.165-0.25 0.165-0.399v-1.129c0-0.935-0.758-1.694-1.694-1.694zM5.742 11.484v13.548h-2.54c-0.468 0-0.847 0.379-0.847 0.847v1.411h29.355v-1.411c0-0.468-0.379-0.847-0.847-0.847h-2.54v-13.548h-4.516v13.548h-4.516v-13.548h-4.516v13.548h-4.516v-13.548h-4.516z"></path>
</svg>
